<?xml version="1.0" encoding="UTF-8"?>
<svg width="200" height="200" viewBox="0 0 200 200" xmlns="http://www.w3.org/2000/svg">
    <defs>
        <linearGradient id="grad_cloud-architect" x1="0%" y1="0%" x2="100%" y2="100%">
            <stop offset="0%" style="stop-color:#0ea5e9;stop-opacity:1" />
            <stop offset="100%" style="stop-color:#38bdf8;stop-opacity:1" />
        </linearGradient>
    </defs>
    <rect width="200" height="200" fill="url(#grad_cloud-architect)"/>
    <g transform="scale(0.9) translate(10, 5)">
    
        <path d="M60 100 A20 20 0 0 1 60 60 A30 30 0 0 1 120 50 A25 25 0 0 1 140 90 A20 20 0 0 1 140 130 L60 130 A20 20 0 0 1 60 100 Z" fill="#e0f2fe"/>
        <circle cx="80" cy="90" r="15" fill="#bae6fd"/>
        <circle cx="110" cy="95" r="10" fill="#bae6fd"/>
        <path d="M100 130 L100 160 M90 150 L110 150" stroke="#e0f2fe" stroke-width="6" stroke-linecap="round"/>
        
    </g>
    <text x="100" y="175" font-family="Segoe UI, Roboto, Helvetica, Arial, sans-serif" font-size="11" fill="white" text-anchor="middle" font-weight="600" opacity="0.9">CLOUD ARCHITECT</text>
    <rect x="80" y="185" width="40" height="2" fill="white" opacity="0.5"/>
</svg>