<?xml version="1.0" encoding="UTF-8"?>
<svg width="200" height="200" viewBox="0 0 200 200" xmlns="http://www.w3.org/2000/svg">
    <defs>
        <linearGradient id="grad_computer-vision-engineer" x1="0%" y1="0%" x2="100%" y2="100%">
            <stop offset="0%" style="stop-color:#831843;stop-opacity:1" />
            <stop offset="100%" style="stop-color:#db2777;stop-opacity:1" />
        </linearGradient>
    </defs>
    <rect width="200" height="200" fill="url(#grad_computer-vision-engineer)"/>
    <g transform="scale(0.9) translate(10, 5)">
    
        <rect x="40" y="60" width="120" height="80" fill="none" stroke="#fbcfe8" stroke-width="8" rx="10"/>
        <path d="M40 80 L60 80 M40 120 L60 120 M140 80 L160 80 M140 120 L160 120" stroke="#f9a8d4" stroke-width="4"/>
        <path d="M80 60 L80 80 M120 60 L120 80 M80 120 L80 140 M120 120 L120 140" stroke="#f9a8d4" stroke-width="4"/>
        <circle cx="100" cy="100" r="20" fill="#f472b6"/>
        <circle cx="100" cy="100" r="8" fill="#831843"/>
        
    </g>
    <text x="100" y="175" font-family="Segoe UI, Roboto, Helvetica, Arial, sans-serif" font-size="11" fill="white" text-anchor="middle" font-weight="600" opacity="0.9">COMPUTER VISION ENGINEER</text>
    <rect x="80" y="185" width="40" height="2" fill="white" opacity="0.5"/>
</svg>