<?xml version="1.0" encoding="UTF-8"?>
<svg width="200" height="200" viewBox="0 0 200 200" xmlns="http://www.w3.org/2000/svg">
    <defs>
        <linearGradient id="grad_data-engineer" x1="0%" y1="0%" x2="100%" y2="100%">
            <stop offset="0%" style="stop-color:#0f172a;stop-opacity:1" />
            <stop offset="100%" style="stop-color:#475569;stop-opacity:1" />
        </linearGradient>
    </defs>
    <rect width="200" height="200" fill="url(#grad_data-engineer)"/>
    <g transform="scale(0.9) translate(10, 5)">
    
        <ellipse cx="100" cy="50" rx="40" ry="15" fill="#94a3b8"/>
        <path d="M60 50 L60 80 A40 15 0 0 0 140 80 L140 50" fill="#cbd5e1"/>
        <ellipse cx="100" cy="80" rx="40" ry="15" fill="#94a3b8"/>
        <path d="M60 80 L60 110 A40 15 0 0 0 140 110 L140 80" fill="#e2e8f0"/>
        <ellipse cx="100" cy="110" rx="40" ry="15" fill="#94a3b8"/>
        <path d="M60 110 L60 140 A40 15 0 0 0 140 140 L140 110" fill="#f1f5f9"/>
        <ellipse cx="100" cy="140" rx="40" ry="15" fill="#cbd5e1"/>
        
    </g>
    <text x="100" y="175" font-family="Segoe UI, Roboto, Helvetica, Arial, sans-serif" font-size="11" fill="white" text-anchor="middle" font-weight="600" opacity="0.9">DATA ENGINEER</text>
    <rect x="80" y="185" width="40" height="2" fill="white" opacity="0.5"/>
</svg>