<?xml version="1.0" encoding="UTF-8"?>
<svg width="200" height="200" viewBox="0 0 200 200" xmlns="http://www.w3.org/2000/svg">
    <defs>
        <linearGradient id="grad_deep-learning-engineer" x1="0%" y1="0%" x2="100%" y2="100%">
            <stop offset="0%" style="stop-color:#1e1b4b;stop-opacity:1" />
            <stop offset="100%" style="stop-color:#4f46e5;stop-opacity:1" />
        </linearGradient>
    </defs>
    <rect width="200" height="200" fill="url(#grad_deep-learning-engineer)"/>
    <g transform="scale(0.9) translate(10, 5)">
    
        <circle cx="50" cy="60" r="10" fill="#a5b4fc"/><circle cx="50" cy="100" r="10" fill="#a5b4fc"/><circle cx="50" cy="140" r="10" fill="#a5b4fc"/>
        <circle cx="100" cy="80" r="10" fill="#c7d2fe"/><circle cx="100" cy="120" r="10" fill="#c7d2fe"/>
        <circle cx="150" cy="100" r="10" fill="#e0e7ff"/>
        <path d="M60 60 L90 80 M60 60 L90 120 M60 100 L90 80 M60 100 L90 120 M60 140 L90 80 M60 140 L90 120" stroke="#818cf8" stroke-width="2"/>
        <path d="M110 80 L140 100 M110 120 L140 100" stroke="#818cf8" stroke-width="2"/>
        
    </g>
    <text x="100" y="175" font-family="Segoe UI, Roboto, Helvetica, Arial, sans-serif" font-size="11" fill="white" text-anchor="middle" font-weight="600" opacity="0.9">DEEP LEARNING ENGINEER</text>
    <rect x="80" y="185" width="40" height="2" fill="white" opacity="0.5"/>
</svg>