<?xml version="1.0" encoding="UTF-8"?>
<svg width="200" height="200" viewBox="0 0 200 200" xmlns="http://www.w3.org/2000/svg">
    <defs>
        <linearGradient id="grad_ios-developer" x1="0%" y1="0%" x2="100%" y2="100%">
            <stop offset="0%" style="stop-color:#0f172a;stop-opacity:1" />
            <stop offset="100%" style="stop-color:#334155;stop-opacity:1" />
        </linearGradient>
    </defs>
    <rect width="200" height="200" fill="url(#grad_ios-developer)"/>
    <g transform="scale(0.9) translate(10, 5)">
    
        <path d="M100 130 C70 130 70 80 100 80 C120 80 130 90 130 100 A20 20 0 0 0 115 110 C115 130 100 130 100 130 Z" fill="#e2e8f0"/>
        <path d="M100 80 C110 80 110 60 100 60 C90 60 90 80 100 80 Z" fill="#e2e8f0"/>
        <rect x="70" y="150" width="60" height="4" fill="#cbd5e1" rx="2"/>
        
    </g>
    <text x="100" y="175" font-family="Segoe UI, Roboto, Helvetica, Arial, sans-serif" font-size="11" fill="white" text-anchor="middle" font-weight="600" opacity="0.9">IOS DEVELOPER</text>
    <rect x="80" y="185" width="40" height="2" fill="white" opacity="0.5"/>
</svg>