<?xml version="1.0" encoding="UTF-8"?>
<svg width="200" height="200" viewBox="0 0 200 200" xmlns="http://www.w3.org/2000/svg">
    <defs>
        <linearGradient id="grad_software-tester" x1="0%" y1="0%" x2="100%" y2="100%">
            <stop offset="0%" style="stop-color:#4c1d95;stop-opacity:1" />
            <stop offset="100%" style="stop-color:#8b5cf6;stop-opacity:1" />
        </linearGradient>
    </defs>
    <rect width="200" height="200" fill="url(#grad_software-tester)"/>
    <g transform="scale(0.9) translate(10, 5)">
    
        <path d="M70 60 L130 60 A20 20 0 0 1 150 80 L150 120 A20 20 0 0 1 130 140 L70 140 A20 20 0 0 1 50 120 L50 80 A20 20 0 0 1 70 60 Z" fill="#ddd6fe"/>
        <circle cx="100" cy="100" r="20" fill="#8b5cf6"/>
        <circle cx="100" cy="100" r="8" fill="#f5f3ff"/>
        <path d="M120 120 L140 140" stroke="#ddd6fe" stroke-width="8" stroke-linecap="round"/>
        
    </g>
    <text x="100" y="175" font-family="Segoe UI, Roboto, Helvetica, Arial, sans-serif" font-size="11" fill="white" text-anchor="middle" font-weight="600" opacity="0.9">SOFTWARE TESTER</text>
    <rect x="80" y="185" width="40" height="2" fill="white" opacity="0.5"/>
</svg>