<?xml version="1.0" encoding="UTF-8"?>
<svg width="600" height="400" viewBox="0 0 600 400" xmlns="http://www.w3.org/2000/svg">
    <defs>
        <linearGradient id="grad8" x1="0%" y1="0%" x2="100%" y2="100%">
            <stop offset="0%" style="stop-color:hsl(20, 70%, 50%);stop-opacity:1" />
            <stop offset="100%" style="stop-color:hsl(60, 60%, 40%);stop-opacity:1" />
        </linearGradient>
        <filter id="shadow8" x="-20%" y="-20%" width="140%" height="140%">
            <feGaussianBlur in="SourceAlpha" stdDeviation="10" />
            <feOffset dx="0" dy="10" />
            <feComponentTransfer>
                <feFuncA type="linear" slope="0.3" />
            </feComponentTransfer>
            <feMerge>
                <feMergeNode />
                <feMergeNode in="SourceGraphic" />
            </feMerge>
        </filter>
    </defs>
    
    <!-- Background -->
    <rect width="600" height="400" fill="#0f172a" />
    
    <!-- Abstract Patterns -->
    <circle cx="500" cy="100" r="150" fill="hsl(40, 80%, 60%)" opacity="0.05" />
    <path d="M0,400 Q150,300 300,400 T600,400 L600,400 L0,400 Z" fill="hsl(20, 70%, 50%)" opacity="0.1" />
    
    <!-- Main Decorative Shape -->
    <rect x="150" y="50" width="300" height="300" rx="60" fill="url(#grad8)" opacity="0.15" />
    <circle cx="300" cy="200" r="120" stroke="url(#grad8)" stroke-width="2" fill="none" opacity="0.3" />
    
    <!-- Icon Container -->
    <g filter="url(#shadow8)">
        <circle cx="300" cy="200" r="60" fill="url(#grad8)" />
        <path d="M12,10.12C11.5,10.12 11.12,10.5 11.12,11C11.12,11.5 11.5,11.88 12,11.88C12.5,11.88 12.88,11.5 12.88,11C12.88,10.5 12.5,10.12 12,10.12M12,2L4,5V11C4,16.55 7.84,21.74 12,23C16.16,21.74 20,16.55 20,11V5L12,2M16,13H14V15H12V13H10V11H12V9H14V11H16V13Z" transform="translate(270, 170) scale(2.5)" fill="#ffffff" />
    </g>
    
    <!-- Pattern Grids -->
    <g opacity="0.1">
        <circle cx='50' cy='50' r='2' fill='#ffffff' /><circle cx='50' cy='70' r='2' fill='#ffffff' /><circle cx='50' cy='90' r='2' fill='#ffffff' /><circle cx='50' cy='110' r='2' fill='#ffffff' /><circle cx='50' cy='130' r='2' fill='#ffffff' /><circle cx='70' cy='50' r='2' fill='#ffffff' /><circle cx='70' cy='70' r='2' fill='#ffffff' /><circle cx='70' cy='90' r='2' fill='#ffffff' /><circle cx='70' cy='110' r='2' fill='#ffffff' /><circle cx='70' cy='130' r='2' fill='#ffffff' /><circle cx='90' cy='50' r='2' fill='#ffffff' /><circle cx='90' cy='70' r='2' fill='#ffffff' /><circle cx='90' cy='90' r='2' fill='#ffffff' /><circle cx='90' cy='110' r='2' fill='#ffffff' /><circle cx='90' cy='130' r='2' fill='#ffffff' /><circle cx='110' cy='50' r='2' fill='#ffffff' /><circle cx='110' cy='70' r='2' fill='#ffffff' /><circle cx='110' cy='90' r='2' fill='#ffffff' /><circle cx='110' cy='110' r='2' fill='#ffffff' /><circle cx='110' cy='130' r='2' fill='#ffffff' /><circle cx='130' cy='50' r='2' fill='#ffffff' /><circle cx='130' cy='70' r='2' fill='#ffffff' /><circle cx='130' cy='90' r='2' fill='#ffffff' /><circle cx='130' cy='110' r='2' fill='#ffffff' /><circle cx='130' cy='130' r='2' fill='#ffffff' />
    </g>
</svg>