<?xml version="1.0" encoding="UTF-8"?>
<svg width="600" height="400" viewBox="0 0 600 400" xmlns="http://www.w3.org/2000/svg">
    <defs>
        <linearGradient id="grad16" x1="0%" y1="0%" x2="100%" y2="100%">
            <stop offset="0%" style="stop-color:hsl(40, 70%, 50%);stop-opacity:1" />
            <stop offset="100%" style="stop-color:hsl(80, 60%, 40%);stop-opacity:1" />
        </linearGradient>
        <filter id="shadow16" x="-20%" y="-20%" width="140%" height="140%">
            <feGaussianBlur in="SourceAlpha" stdDeviation="10" />
            <feOffset dx="0" dy="10" />
            <feComponentTransfer>
                <feFuncA type="linear" slope="0.3" />
            </feComponentTransfer>
            <feMerge>
                <feMergeNode />
                <feMergeNode in="SourceGraphic" />
            </feMerge>
        </filter>
    </defs>
    
    <!-- Background -->
    <rect width="600" height="400" fill="#0f172a" />
    
    <!-- Abstract Patterns -->
    <circle cx="500" cy="100" r="150" fill="hsl(60, 80%, 60%)" opacity="0.05" />
    <path d="M0,400 Q150,300 300,400 T600,400 L600,400 L0,400 Z" fill="hsl(40, 70%, 50%)" opacity="0.1" />
    
    <!-- Main Decorative Shape -->
    <rect x="150" y="50" width="300" height="300" rx="60" fill="url(#grad16)" opacity="0.15" />
    <circle cx="300" cy="200" r="120" stroke="url(#grad16)" stroke-width="2" fill="none" opacity="0.3" />
    
    <!-- Icon Container -->
    <g filter="url(#shadow16)">
        <circle cx="300" cy="200" r="60" fill="url(#grad16)" />
        <path d="M12,20A8,8 0 0,1 4,12A8,8 0 0,1 12,4A8,8 0 0,1 20,12A8,8 0 0,1 12,20M12,2A10,10 0 0,0 2,12A10,10 0 0,0 12,22A10,10 0 0,0 22,12A10,10 0 0,0 12,2M13,7H11V11H7V13H11V17H13V13H17V11H13V7Z" transform="translate(270, 170) scale(2.5)" fill="#ffffff" />
    </g>
    
    <!-- Pattern Grids -->
    <g opacity="0.1">
        <circle cx='50' cy='50' r='2' fill='#ffffff' /><circle cx='50' cy='70' r='2' fill='#ffffff' /><circle cx='50' cy='90' r='2' fill='#ffffff' /><circle cx='50' cy='110' r='2' fill='#ffffff' /><circle cx='50' cy='130' r='2' fill='#ffffff' /><circle cx='70' cy='50' r='2' fill='#ffffff' /><circle cx='70' cy='70' r='2' fill='#ffffff' /><circle cx='70' cy='90' r='2' fill='#ffffff' /><circle cx='70' cy='110' r='2' fill='#ffffff' /><circle cx='70' cy='130' r='2' fill='#ffffff' /><circle cx='90' cy='50' r='2' fill='#ffffff' /><circle cx='90' cy='70' r='2' fill='#ffffff' /><circle cx='90' cy='90' r='2' fill='#ffffff' /><circle cx='90' cy='110' r='2' fill='#ffffff' /><circle cx='90' cy='130' r='2' fill='#ffffff' /><circle cx='110' cy='50' r='2' fill='#ffffff' /><circle cx='110' cy='70' r='2' fill='#ffffff' /><circle cx='110' cy='90' r='2' fill='#ffffff' /><circle cx='110' cy='110' r='2' fill='#ffffff' /><circle cx='110' cy='130' r='2' fill='#ffffff' /><circle cx='130' cy='50' r='2' fill='#ffffff' /><circle cx='130' cy='70' r='2' fill='#ffffff' /><circle cx='130' cy='90' r='2' fill='#ffffff' /><circle cx='130' cy='110' r='2' fill='#ffffff' /><circle cx='130' cy='130' r='2' fill='#ffffff' />
    </g>
</svg>