<?xml version="1.0" encoding="UTF-8"?>
<svg width="600" height="400" viewBox="0 0 600 400" xmlns="http://www.w3.org/2000/svg">
    <defs>
        <linearGradient id="grad23" x1="0%" y1="0%" x2="100%" y2="100%">
            <stop offset="0%" style="stop-color:hsl(282, 70%, 50%);stop-opacity:1" />
            <stop offset="100%" style="stop-color:hsl(322, 60%, 40%);stop-opacity:1" />
        </linearGradient>
        <filter id="shadow23" x="-20%" y="-20%" width="140%" height="140%">
            <feGaussianBlur in="SourceAlpha" stdDeviation="10" />
            <feOffset dx="0" dy="10" />
            <feComponentTransfer>
                <feFuncA type="linear" slope="0.3" />
            </feComponentTransfer>
            <feMerge>
                <feMergeNode />
                <feMergeNode in="SourceGraphic" />
            </feMerge>
        </filter>
    </defs>
    
    <!-- Background -->
    <rect width="600" height="400" fill="#0f172a" />
    
    <!-- Abstract Patterns -->
    <rect x="400" y="-50" width="300" height="300" rx="40" transform="rotate(15)" fill="hsl(302, 80%, 60%)" opacity="0.05" />
    <path d="M0,400 Q150,300 300,400 T600,400 L600,400 L0,400 Z" fill="hsl(282, 70%, 50%)" opacity="0.1" />
    
    <!-- Main Decorative Shape -->
    <rect x="150" y="50" width="300" height="300" rx="60" fill="url(#grad23)" opacity="0.15" />
    <circle cx="300" cy="200" r="120" stroke="url(#grad23)" stroke-width="2" fill="none" opacity="0.3" />
    
    <!-- Icon Container -->
    <g filter="url(#shadow23)">
        <circle cx="300" cy="200" r="60" fill="url(#grad23)" />
        <path d="M20,6C20,8.21 16,10 16,10C16,10 12,8.21 12,6C12,3.79 16,2 16,2C16,2 20,3.79 20,6M15,12V15H17V12H15M14,10H18V22H14V10M12,13.17C12,13.17 11.23,12.78 10,12.21V10.21C11.53,10.96 12,11.5 12,11.5V13.17M10,22H6V10H10V22M8,6C8,8.21 4,10 4,10C4,10 0,8.21 0,6C0,3.79 4,2 4,2C4,2 8,3.79 8,6Z" transform="translate(270, 170) scale(2.5)" fill="#ffffff" />
    </g>
    
    <!-- Pattern Grids -->
    <g opacity="0.1">
        <circle cx='50' cy='50' r='2' fill='#ffffff' /><circle cx='50' cy='70' r='2' fill='#ffffff' /><circle cx='50' cy='90' r='2' fill='#ffffff' /><circle cx='50' cy='110' r='2' fill='#ffffff' /><circle cx='50' cy='130' r='2' fill='#ffffff' /><circle cx='70' cy='50' r='2' fill='#ffffff' /><circle cx='70' cy='70' r='2' fill='#ffffff' /><circle cx='70' cy='90' r='2' fill='#ffffff' /><circle cx='70' cy='110' r='2' fill='#ffffff' /><circle cx='70' cy='130' r='2' fill='#ffffff' /><circle cx='90' cy='50' r='2' fill='#ffffff' /><circle cx='90' cy='70' r='2' fill='#ffffff' /><circle cx='90' cy='90' r='2' fill='#ffffff' /><circle cx='90' cy='110' r='2' fill='#ffffff' /><circle cx='90' cy='130' r='2' fill='#ffffff' /><circle cx='110' cy='50' r='2' fill='#ffffff' /><circle cx='110' cy='70' r='2' fill='#ffffff' /><circle cx='110' cy='90' r='2' fill='#ffffff' /><circle cx='110' cy='110' r='2' fill='#ffffff' /><circle cx='110' cy='130' r='2' fill='#ffffff' /><circle cx='130' cy='50' r='2' fill='#ffffff' /><circle cx='130' cy='70' r='2' fill='#ffffff' /><circle cx='130' cy='90' r='2' fill='#ffffff' /><circle cx='130' cy='110' r='2' fill='#ffffff' /><circle cx='130' cy='130' r='2' fill='#ffffff' />
    </g>
</svg>