<?xml version="1.0" encoding="UTF-8"?>
<svg width="600" height="400" viewBox="0 0 600 400" xmlns="http://www.w3.org/2000/svg">
    <defs>
        <linearGradient id="grad11" x1="0%" y1="0%" x2="100%" y2="100%">
            <stop offset="0%" style="stop-color:hsl(72, 70%, 50%);stop-opacity:1" />
            <stop offset="100%" style="stop-color:hsl(112, 60%, 40%);stop-opacity:1" />
        </linearGradient>
        <filter id="shadow11" x="-20%" y="-20%" width="140%" height="140%">
            <feGaussianBlur in="SourceAlpha" stdDeviation="10" />
            <feOffset dx="0" dy="10" />
            <feComponentTransfer>
                <feFuncA type="linear" slope="0.3" />
            </feComponentTransfer>
            <feMerge>
                <feMergeNode />
                <feMergeNode in="SourceGraphic" />
            </feMerge>
        </filter>
    </defs>
    
    <!-- Background -->
    <rect width="600" height="400" fill="#0f172a" />
    
    <!-- Abstract Patterns -->
    <rect x="400" y="-50" width="300" height="300" rx="40" transform="rotate(15)" fill="hsl(92, 80%, 60%)" opacity="0.05" />
    <path d="M0,400 Q150,300 300,400 T600,400 L600,400 L0,400 Z" fill="hsl(72, 70%, 50%)" opacity="0.1" />
    
    <!-- Main Decorative Shape -->
    <rect x="150" y="50" width="300" height="300" rx="60" fill="url(#grad11)" opacity="0.15" />
    <circle cx="300" cy="200" r="120" stroke="url(#grad11)" stroke-width="2" fill="none" opacity="0.3" />
    
    <!-- Icon Container -->
    <g filter="url(#shadow11)">
        <circle cx="300" cy="200" r="60" fill="url(#grad11)" />
        <path d="M12,2C10.9,2 10,2.9 10,4V6H14V4C14,2.9 13.1,2 12,2M10,8C10,8 4,10 4,15V22H20V15C20,10 14,8 14,8H10Z" transform="translate(270, 170) scale(2.5)" fill="#ffffff" />
    </g>
    
    <!-- Pattern Grids -->
    <g opacity="0.1">
        <circle cx='50' cy='50' r='2' fill='#ffffff' /><circle cx='50' cy='70' r='2' fill='#ffffff' /><circle cx='50' cy='90' r='2' fill='#ffffff' /><circle cx='50' cy='110' r='2' fill='#ffffff' /><circle cx='50' cy='130' r='2' fill='#ffffff' /><circle cx='70' cy='50' r='2' fill='#ffffff' /><circle cx='70' cy='70' r='2' fill='#ffffff' /><circle cx='70' cy='90' r='2' fill='#ffffff' /><circle cx='70' cy='110' r='2' fill='#ffffff' /><circle cx='70' cy='130' r='2' fill='#ffffff' /><circle cx='90' cy='50' r='2' fill='#ffffff' /><circle cx='90' cy='70' r='2' fill='#ffffff' /><circle cx='90' cy='90' r='2' fill='#ffffff' /><circle cx='90' cy='110' r='2' fill='#ffffff' /><circle cx='90' cy='130' r='2' fill='#ffffff' /><circle cx='110' cy='50' r='2' fill='#ffffff' /><circle cx='110' cy='70' r='2' fill='#ffffff' /><circle cx='110' cy='90' r='2' fill='#ffffff' /><circle cx='110' cy='110' r='2' fill='#ffffff' /><circle cx='110' cy='130' r='2' fill='#ffffff' /><circle cx='130' cy='50' r='2' fill='#ffffff' /><circle cx='130' cy='70' r='2' fill='#ffffff' /><circle cx='130' cy='90' r='2' fill='#ffffff' /><circle cx='130' cy='110' r='2' fill='#ffffff' /><circle cx='130' cy='130' r='2' fill='#ffffff' />
    </g>
</svg>