<svg xmlns="http://www.w3.org/2000/svg" viewBox="0 0 120 120" role="img" aria-label="AI Career Guruji">
  <defs>
    <linearGradient id="bg" x1="0%" y1="0%" x2="100%" y2="100%">
      <stop offset="0%" stop-color="#e0f2fe"/>
      <stop offset="55%" stop-color="#38bdf8"/>
      <stop offset="100%" stop-color="#1d4ed8"/>
    </linearGradient>
    <linearGradient id="face" x1="0%" y1="0%" x2="0%" y2="100%">
      <stop offset="0%" stop-color="#ffffff"/>
      <stop offset="100%" stop-color="#dbeafe"/>
    </linearGradient>
    <linearGradient id="cap" x1="0%" y1="0%" x2="100%" y2="100%">
      <stop offset="0%" stop-color="#1e3a8a"/>
      <stop offset="100%" stop-color="#2563eb"/>
    </linearGradient>
  </defs>
  <circle cx="60" cy="60" r="58" fill="url(#bg)"/>
  <circle cx="60" cy="60" r="58" fill="none" stroke="#ffffff" stroke-opacity="0.35" stroke-width="2"/>
  <ellipse cx="60" cy="78" rx="34" ry="28" fill="#ffffff" opacity="0.18"/>
  <rect x="28" y="42" width="64" height="52" rx="18" fill="url(#face)" stroke="#1e40af" stroke-width="2"/>
  <path d="M34 30 L60 18 L86 30 L82 38 L38 38 Z" fill="url(#cap)"/>
  <rect x="38" y="28" width="44" height="8" rx="3" fill="#1e3a8a"/>
  <circle cx="47" cy="58" r="5" fill="#1e3a8a"/>
  <circle cx="73" cy="58" r="5" fill="#1e3a8a"/>
  <circle cx="48" cy="57" r="1.8" fill="#ffffff"/>
  <circle cx="74" cy="57" r="1.8" fill="#ffffff"/>
  <path d="M48 72 Q60 80 72 72" fill="none" stroke="#1d4ed8" stroke-width="3" stroke-linecap="round"/>
  <rect x="18" y="52" width="10" height="22" rx="5" fill="#bfdbfe" stroke="#1e40af" stroke-width="1.5"/>
  <rect x="92" y="52" width="10" height="22" rx="5" fill="#bfdbfe" stroke="#1e40af" stroke-width="1.5"/>
  <circle cx="18" cy="52" r="4" fill="#60a5fa"/>
  <circle cx="102" cy="52" r="4" fill="#60a5fa"/>
  <g transform="translate(78,78)">
    <circle cx="0" cy="0" r="14" fill="#ffffff" stroke="#1d4ed8" stroke-width="2"/>
    <path d="M-6 -2 L6 -2 L0 8 Z" fill="none" stroke="#1d4ed8" stroke-width="2" stroke-linejoin="round"/>
    <circle cx="0" cy="-2" r="2" fill="#1d4ed8"/>
  </g>
  <g transform="translate(24,78)">
    <rect x="-8" y="-10" width="16" height="12" rx="2" fill="#ffffff" stroke="#1d4ed8" stroke-width="1.8"/>
    <line x1="-5" y1="-6" x2="5" y2="-6" stroke="#38bdf8" stroke-width="1.5"/>
    <line x1="-5" y1="-2" x2="3" y2="-2" stroke="#38bdf8" stroke-width="1.5"/>
  </g>
  <circle cx="96" cy="24" r="10" fill="#fbbf24" stroke="#ffffff" stroke-width="2"/>
  <path d="M92 24 L95 27 L101 21" fill="none" stroke="#1e3a8a" stroke-width="2" stroke-linecap="round" stroke-linejoin="round"/>
</svg>
