<?xml version="1.0" encoding="UTF-8"?>
<svg width="600" height="400" viewBox="0 0 600 400" xmlns="http://www.w3.org/2000/svg">
    <defs>
        <linearGradient id="grad14" x1="0%" y1="0%" x2="100%" y2="100%">
            <stop offset="0%" style="stop-color:hsl(125, 80%, 60%);stop-opacity:1" />
            <stop offset="100%" style="stop-color:hsl(185, 70%, 50%);stop-opacity:1" />
        </linearGradient>
        <filter id="shadow14" x="-20%" y="-20%" width="140%" height="140%">
            <feGaussianBlur in="SourceAlpha" stdDeviation="12" />
            <feOffset dx="0" dy="8" />
            <feComponentTransfer>
                <feFuncA type="linear" slope="0.4" />
            </feComponentTransfer>
            <feMerge>
                <feMergeNode />
                <feMergeNode in="SourceGraphic" />
            </feMerge>
        </filter>
    </defs>
    
    <!-- Background -->
    <rect width="600" height="400" fill="#0f172a" />
    
    <!-- Dynamic Creative Background Elements -->
    <path d="M-50,200 Q150,50 350,200 T750,200" fill="none" stroke="hsl(155, 90%, 70%)" stroke-width="40" opacity="0.05" /><rect x="450" y="250" width="120" height="120" rx="60" fill="hsl(155, 90%, 70%)" opacity="0.08" />
    
    <!-- Glassmorphic Glow -->
    <circle cx="300" cy="200" r="150" fill="url(#grad14)" opacity="0.05" />
    
    <!-- Central Illustration Shape -->
    <g filter="url(#shadow14)">
        <path d="M300,100 L400,200 L300,300 L200,200 Z" fill="url(#grad14)" opacity="0.2" />
        
        <circle cx="300" cy="200" r="70" fill="url(#grad14)" />
        <path d="M13.5,19H14.5V22H13.5V19M11,19H12V22H11V19M16,19H17V22H16V19M18.5,19H19.5V22H18.5V19M8.5,19H9.5V22H8.5V19M6,19H7V22H6V19M3.5,19H4.5V22H3.5V19M21,6H3C1.9,6 1,6.9 1,8V16C1,17.1 1.9,18 3,18H21C22.1,18 23,17.1 23,16V8C23,6.9 22.1,6 21,6Z" transform="translate(265, 165) scale(2.9)" fill="#ffffff" />
    </g>

    <!-- Floating Particles -->
    <g opacity="0.15">
        <circle cx="150" cy="80" r="4" fill="#ffffff" />
        <circle cx="450" cy="320" r="6" fill="#ffffff" />
        <circle cx="520" cy="180" r="3" fill="#ffffff" />
        <circle cx="80" cy="200" r="5" fill="#ffffff" />
    </g>
</svg>