<?xml version="1.0" encoding="UTF-8"?>
<svg width="200" height="200" viewBox="0 0 200 200" xmlns="http://www.w3.org/2000/svg">
    <defs>
        <linearGradient id="grad2" x1="0%" y1="0%" x2="100%" y2="100%">
            <stop offset="0%" style="stop-color:hsl(24, 70%, 50%);stop-opacity:1" />
            <stop offset="100%" style="stop-color:hsl(84, 60%, 40%);stop-opacity:1" />
        </linearGradient>
        <filter id="shadow2" x="-20%" y="-20%" width="140%" height="140%">
            <feGaussianBlur in="SourceAlpha" stdDeviation="4" />
            <feOffset dx="0" dy="4" result="offsetblur" />
            <feComponentTransfer>
                <feFuncA type="linear" slope="0.4" />
            </feComponentTransfer>
            <feMerge>
                <feMergeNode />
                <feMergeNode in="SourceGraphic" />
            </feMerge>
        </filter>
    </defs>
    <rect width="200" height="200" fill="hsl(24, 90%, 8%)" rx="24" />
    <path d="M100,10 L190,190 L10,190 Z" fill="url(#grad2)" fill-opacity="0.08" />
    
    <!-- Career Icon Background Glow -->
    <circle cx="100" cy="90" r="48" fill="url(#grad2)" opacity="0.25" filter="url(#shadow2)" />
    
    <g transform="translate(68, 58) scale(2.6)" fill="#fff" filter="url(#shadow2)">
        <path d="M12,2A10,10 0 0,0 2,12A10,10 0 0,0 12,22A10,10 0 0,0 22,12A10,10 0 0,0 12,2M12,4A8,8 0 0,1 20,12A8,8 0 0,1 12,20A8,8 0 0,1 4,12A8,8 0 0,1 12,4M11,6V11H6V13H11V18H13V13H18V11H13V6H11Z" />
    </g>

    <!-- Decorative unique pattern -->
    <g stroke="hsl(24, 70%, 50%)" stroke-width="1.5" fill="none" opacity="0.3">
        <path d="M20,180 L180,20 M20,20 L180,180" />
    </g>

    <text x="100" y="175" font-family="Sora, sans-serif" font-size="11" fill="#fff" text-anchor="middle" font-weight="800" letter-spacing="0.5">ACUPUNCTURIST</text>
</svg>