<?xml version="1.0" encoding="UTF-8"?>
<svg width="200" height="200" viewBox="0 0 200 200" xmlns="http://www.w3.org/2000/svg">
    <defs>
        <linearGradient id="grad13" x1="0%" y1="0%" x2="100%" y2="100%">
            <stop offset="0%" style="stop-color:hsl(156, 70%, 50%);stop-opacity:1" />
            <stop offset="100%" style="stop-color:hsl(216, 60%, 40%);stop-opacity:1" />
        </linearGradient>
        <filter id="shadow13" x="-20%" y="-20%" width="140%" height="140%">
            <feGaussianBlur in="SourceAlpha" stdDeviation="4" />
            <feOffset dx="0" dy="4" result="offsetblur" />
            <feComponentTransfer>
                <feFuncA type="linear" slope="0.4" />
            </feComponentTransfer>
            <feMerge>
                <feMergeNode />
                <feMergeNode in="SourceGraphic" />
            </feMerge>
        </filter>
    </defs>
    <rect width="200" height="200" fill="hsl(156, 90%, 8%)" rx="24" />
    <rect x="15" y="15" width="170" height="170" rx="25" fill="url(#grad13)" fill-opacity="0.1" />
    
    <!-- Career Icon Background Glow -->
    <circle cx="100" cy="90" r="48" fill="url(#grad13)" opacity="0.25" filter="url(#shadow13)" />
    
    <g transform="translate(68, 58) scale(2.6)" fill="#fff" filter="url(#shadow13)">
        <path d="M18,18.5A1.5,1.5 0 0,1 16.5,17A1.5,1.5 0 0,1 18,15.5A1.5,1.5 0 0,1 19.5,17A1.5,1.5 0 0,1 18,18.5M19.5,12V14H16.5V12H19.5M6,18.5A1.5,1.5 0 0,1 4.5,17A1.5,1.5 0 0,1 6,15.5A1.5,1.5 0 0,1 7.5,17A1.5,1.5 0 0,1 6,18.5M18.92,11L18,8H6L5.08,11L4,11V17H5A3,3 0 0,0 8,20A3,3 0 0,0 11,17H13A3,3 0 0,0 16,20A3,3 0 0,0 19,17H20V11L18.92,11Z" />
    </g>

    <!-- Decorative unique pattern -->
    <g stroke="hsl(156, 70%, 50%)" stroke-width="1.5" fill="none" opacity="0.3">
        <rect x="40" y="30" width="120" height="120" rx="10" />
    </g>

    <text x="100" y="175" font-family="Sora, sans-serif" font-size="11" fill="#fff" text-anchor="middle" font-weight="800" letter-spacing="0.5">AMBULANCE DRIVER</text>
</svg>