<?xml version="1.0" encoding="UTF-8"?>
<svg width="200" height="200" viewBox="0 0 200 200" xmlns="http://www.w3.org/2000/svg">
    <defs>
        <linearGradient id="grad0" x1="0%" y1="0%" x2="100%" y2="100%">
            <stop offset="0%" style="stop-color:hsl(0, 70%, 50%);stop-opacity:1" />
            <stop offset="100%" style="stop-color:hsl(60, 60%, 40%);stop-opacity:1" />
        </linearGradient>
        <filter id="shadow0" x="-20%" y="-20%" width="140%" height="140%">
            <feGaussianBlur in="SourceAlpha" stdDeviation="4" />
            <feOffset dx="0" dy="4" result="offsetblur" />
            <feComponentTransfer>
                <feFuncA type="linear" slope="0.4" />
            </feComponentTransfer>
            <feMerge>
                <feMergeNode />
                <feMergeNode in="SourceGraphic" />
            </feMerge>
        </filter>
    </defs>
    <rect width="200" height="200" fill="hsl(0, 90%, 8%)" rx="24" />
    <circle cx="100" cy="100" r="85" fill="url(#grad0)" fill-opacity="0.12" />
    
    <!-- Career Icon Background Glow -->
    <circle cx="100" cy="90" r="48" fill="url(#grad0)" opacity="0.25" filter="url(#shadow0)" />
    
    <g transform="translate(68, 58) scale(2.6)" fill="#fff" filter="url(#shadow0)">
        <path d="M19,3H5C3.89,3 3,3.89 3,5V19A2,2 0 0,0 5,21H19A2,2 0 0,0 21,19V5C21,3.89 20.1,3 19,3M19,19H5V5H19V19M17,17H7V15H17V17M17,13H7V11H17V13M17,9H7V7H17V9Z" />
    </g>

    <!-- Decorative unique pattern -->
    <g stroke="hsl(0, 70%, 50%)" stroke-width="1.5" fill="none" opacity="0.3">
        <circle cx="100" cy="90" r="60" />
    </g>

    <text x="100" y="175" font-family="Sora, sans-serif" font-size="11" fill="#fff" text-anchor="middle" font-weight="800" letter-spacing="0.5">ANAESTHESIOLOGIST</text>
</svg>