<?xml version="1.0" encoding="UTF-8"?>
<svg width="200" height="200" viewBox="0 0 200 200" xmlns="http://www.w3.org/2000/svg">
    <defs>
        <linearGradient id="grad25" x1="0%" y1="0%" x2="100%" y2="100%">
            <stop offset="0%" style="stop-color:hsl(300, 70%, 50%);stop-opacity:1" />
            <stop offset="100%" style="stop-color:hsl(0, 60%, 40%);stop-opacity:1" />
        </linearGradient>
        <filter id="shadow25" x="-20%" y="-20%" width="140%" height="140%">
            <feGaussianBlur in="SourceAlpha" stdDeviation="4" />
            <feOffset dx="0" dy="4" result="offsetblur" />
            <feComponentTransfer>
                <feFuncA type="linear" slope="0.4" />
            </feComponentTransfer>
            <feMerge>
                <feMergeNode />
                <feMergeNode in="SourceGraphic" />
            </feMerge>
        </filter>
    </defs>
    <rect width="200" height="200" fill="hsl(300, 90%, 8%)" rx="24" />
    <rect x="15" y="15" width="170" height="170" rx="25" fill="url(#grad25)" fill-opacity="0.1" />
    
    <!-- Career Icon Background Glow -->
    <circle cx="100" cy="90" r="48" fill="url(#grad25)" opacity="0.25" filter="url(#shadow25)" />
    
    <g transform="translate(68, 58) scale(2.6)" fill="#fff" filter="url(#shadow25)">
        <path d="M12,9A3,3 0 0,0 9,12A3,3 0 0,0 12,15A3,3 0 0,0 15,12A3,3 0 0,0 12,9M12,17A5,5 0 0,1 7,12A5,5 0 0,1 12,7A5,5 0 0,1 17,12A5,5 0 0,1 12,17M12,4.5C7,4.5 2.73,7.61 1,12C2.73,16.39 7,19.5 12,19.5C17,19.5 21.27,16.39 23,12C21.27,7.61 17,4.5 12,4.5Z" />
    </g>

    <!-- Decorative unique pattern -->
    <g stroke="hsl(300, 70%, 50%)" stroke-width="1.5" fill="none" opacity="0.3">
        <rect x="40" y="30" width="120" height="120" rx="10" />
    </g>

    <text x="100" y="175" font-family="Sora, sans-serif" font-size="11" fill="#fff" text-anchor="middle" font-weight="800" letter-spacing="0.5">AUDIOLOGIST</text>
</svg>