<?xml version="1.0" encoding="UTF-8"?>
<svg width="200" height="200" viewBox="0 0 200 200" xmlns="http://www.w3.org/2000/svg">
    <defs>
        <linearGradient id="grad29" x1="0%" y1="0%" x2="100%" y2="100%">
            <stop offset="0%" style="stop-color:hsl(348, 70%, 50%);stop-opacity:1" />
            <stop offset="100%" style="stop-color:hsl(48, 60%, 40%);stop-opacity:1" />
        </linearGradient>
        <filter id="shadow29" x="-20%" y="-20%" width="140%" height="140%">
            <feGaussianBlur in="SourceAlpha" stdDeviation="4" />
            <feOffset dx="0" dy="4" result="offsetblur" />
            <feComponentTransfer>
                <feFuncA type="linear" slope="0.4" />
            </feComponentTransfer>
            <feMerge>
                <feMergeNode />
                <feMergeNode in="SourceGraphic" />
            </feMerge>
        </filter>
    </defs>
    <rect width="200" height="200" fill="hsl(348, 90%, 8%)" rx="24" />
    <path d="M100,10 L190,190 L10,190 Z" fill="url(#grad29)" fill-opacity="0.08" />
    
    <!-- Career Icon Background Glow -->
    <circle cx="100" cy="90" r="48" fill="url(#grad29)" opacity="0.25" filter="url(#shadow29)" />
    
    <g transform="translate(68, 58) scale(2.6)" fill="#fff" filter="url(#shadow29)">
        <path d="M12,2L1,21H23L12,2M12,6L19.53,19H4.47L12,6M11,10V14H13V10H11M11,16V18H13V16H11Z" />
    </g>

    <!-- Decorative unique pattern -->
    <g stroke="hsl(348, 70%, 50%)" stroke-width="1.5" fill="none" opacity="0.3">
        <path d="M20,180 L180,20 M20,20 L180,180" />
    </g>

    <text x="100" y="175" font-family="Sora, sans-serif" font-size="11" fill="#fff" text-anchor="middle" font-weight="800" letter-spacing="0.5">EMERGENCY MEDICAL TECHNICIAN</text>
</svg>