<?xml version="1.0" encoding="UTF-8"?>
<svg width="200" height="200" viewBox="0 0 200 200" xmlns="http://www.w3.org/2000/svg">
    <defs>
        <linearGradient id="grad17" x1="0%" y1="0%" x2="100%" y2="100%">
            <stop offset="0%" style="stop-color:hsl(204, 70%, 50%);stop-opacity:1" />
            <stop offset="100%" style="stop-color:hsl(264, 60%, 40%);stop-opacity:1" />
        </linearGradient>
        <filter id="shadow17" x="-20%" y="-20%" width="140%" height="140%">
            <feGaussianBlur in="SourceAlpha" stdDeviation="4" />
            <feOffset dx="0" dy="4" result="offsetblur" />
            <feComponentTransfer>
                <feFuncA type="linear" slope="0.4" />
            </feComponentTransfer>
            <feMerge>
                <feMergeNode />
                <feMergeNode in="SourceGraphic" />
            </feMerge>
        </filter>
    </defs>
    <rect width="200" height="200" fill="hsl(204, 90%, 8%)" rx="24" />
    <path d="M100,10 L190,190 L10,190 Z" fill="url(#grad17)" fill-opacity="0.08" />
    
    <!-- Career Icon Background Glow -->
    <circle cx="100" cy="90" r="48" fill="url(#grad17)" opacity="0.25" filter="url(#shadow17)" />
    
    <g transform="translate(68, 58) scale(2.6)" fill="#fff" filter="url(#shadow17)">
        <path d="M16,13C15.71,13 15.38,13 15.03,13.05C16.19,15.32 17,18.21 17,21H21C21,16.58 18.76,13 16,13M8,13C5.24,13 3,16.58 3,21H7C7,18.21 7.81,15.32 8.97,13.05C8.62,13 8.29,13 8,13M12,13C14.21,13 16,11.21 16,9C16,6.79 14.21,5 12,5C9.79,5 8,6.79 8,9C8,11.21 9.79,13 12,13Z" />
    </g>

    <!-- Decorative unique pattern -->
    <g stroke="hsl(204, 70%, 50%)" stroke-width="1.5" fill="none" opacity="0.3">
        <path d="M20,180 L180,20 M20,20 L180,180" />
    </g>

    <text x="100" y="175" font-family="Sora, sans-serif" font-size="11" fill="#fff" text-anchor="middle" font-weight="800" letter-spacing="0.5">EPIDEMIOLOGIST</text>
</svg>