<?xml version="1.0" encoding="UTF-8"?>
<svg width="200" height="200" viewBox="0 0 200 200" xmlns="http://www.w3.org/2000/svg">
    <defs>
        <linearGradient id="grad18" x1="0%" y1="0%" x2="100%" y2="100%">
            <stop offset="0%" style="stop-color:hsl(216, 70%, 50%);stop-opacity:1" />
            <stop offset="100%" style="stop-color:hsl(276, 60%, 40%);stop-opacity:1" />
        </linearGradient>
        <filter id="shadow18" x="-20%" y="-20%" width="140%" height="140%">
            <feGaussianBlur in="SourceAlpha" stdDeviation="4" />
            <feOffset dx="0" dy="4" result="offsetblur" />
            <feComponentTransfer>
                <feFuncA type="linear" slope="0.4" />
            </feComponentTransfer>
            <feMerge>
                <feMergeNode />
                <feMergeNode in="SourceGraphic" />
            </feMerge>
        </filter>
    </defs>
    <rect width="200" height="200" fill="hsl(216, 90%, 8%)" rx="24" />
    <circle cx="100" cy="100" r="85" fill="url(#grad18)" fill-opacity="0.12" />
    
    <!-- Career Icon Background Glow -->
    <circle cx="100" cy="90" r="48" fill="url(#grad18)" opacity="0.25" filter="url(#shadow18)" />
    
    <g transform="translate(68, 58) scale(2.6)" fill="#fff" filter="url(#shadow18)">
        <path d="M19,3H14.82C14.4,1.84 13.3,1 12,1C10.7,1 9.6,1.84 9.18,3H5A2,2 0 0,0 3,5V19A2,2 0 0,0 5,21H19A2,2 0 0,0 21,19V5A2,2 0 0,0 19,3M12,3A1,1 0 0,1 13,4A1,1 0 0,1 12,5A1,1 0 0,1 11,4A1,1 0 0,1 12,3M10,17L5,12L6.41,10.59L10,14.17L17.59,6.58L19,8L10,17Z" />
    </g>

    <!-- Decorative unique pattern -->
    <g stroke="hsl(216, 70%, 50%)" stroke-width="1.5" fill="none" opacity="0.3">
        <circle cx="100" cy="90" r="60" />
    </g>

    <text x="100" y="175" font-family="Sora, sans-serif" font-size="11" fill="#fff" text-anchor="middle" font-weight="800" letter-spacing="0.5">HEALTH INSPECTOR</text>
</svg>