<?xml version="1.0" encoding="UTF-8"?>
<svg width="200" height="200" viewBox="0 0 200 200" xmlns="http://www.w3.org/2000/svg">
    <defs>
        <linearGradient id="grad14" x1="0%" y1="0%" x2="100%" y2="100%">
            <stop offset="0%" style="stop-color:hsl(168, 70%, 50%);stop-opacity:1" />
            <stop offset="100%" style="stop-color:hsl(228, 60%, 40%);stop-opacity:1" />
        </linearGradient>
        <filter id="shadow14" x="-20%" y="-20%" width="140%" height="140%">
            <feGaussianBlur in="SourceAlpha" stdDeviation="4" />
            <feOffset dx="0" dy="4" result="offsetblur" />
            <feComponentTransfer>
                <feFuncA type="linear" slope="0.4" />
            </feComponentTransfer>
            <feMerge>
                <feMergeNode />
                <feMergeNode in="SourceGraphic" />
            </feMerge>
        </filter>
    </defs>
    <rect width="200" height="200" fill="hsl(168, 90%, 8%)" rx="24" />
    <path d="M100,10 L190,190 L10,190 Z" fill="url(#grad14)" fill-opacity="0.08" />
    
    <!-- Career Icon Background Glow -->
    <circle cx="100" cy="90" r="48" fill="url(#grad14)" opacity="0.25" filter="url(#shadow14)" />
    
    <g transform="translate(68, 58) scale(2.6)" fill="#fff" filter="url(#shadow14)">
        <path d="M20,18c1.1,0,2-0.9,2-2V6c0-1.1-0.9-2-2-2H4C2.9,4,2,4.9,2,6v10c0,1.1,0.9,2,2,2H0v2h24v-2H20z M4,6h16v10H4V6z" />
    </g>

    <!-- Decorative unique pattern -->
    <g stroke="hsl(168, 70%, 50%)" stroke-width="1.5" fill="none" opacity="0.3">
        <path d="M20,180 L180,20 M20,20 L180,180" />
    </g>

    <text x="100" y="175" font-family="Sora, sans-serif" font-size="11" fill="#fff" text-anchor="middle" font-weight="800" letter-spacing="0.5">MEDICAL CODER</text>
</svg>