<?xml version="1.0" encoding="UTF-8"?>
<svg width="200" height="200" viewBox="0 0 200 200" xmlns="http://www.w3.org/2000/svg">
    <defs>
        <linearGradient id="grad20" x1="0%" y1="0%" x2="100%" y2="100%">
            <stop offset="0%" style="stop-color:hsl(240, 70%, 50%);stop-opacity:1" />
            <stop offset="100%" style="stop-color:hsl(300, 60%, 40%);stop-opacity:1" />
        </linearGradient>
        <filter id="shadow20" x="-20%" y="-20%" width="140%" height="140%">
            <feGaussianBlur in="SourceAlpha" stdDeviation="4" />
            <feOffset dx="0" dy="4" result="offsetblur" />
            <feComponentTransfer>
                <feFuncA type="linear" slope="0.4" />
            </feComponentTransfer>
            <feMerge>
                <feMergeNode />
                <feMergeNode in="SourceGraphic" />
            </feMerge>
        </filter>
    </defs>
    <rect width="200" height="200" fill="hsl(240, 90%, 8%)" rx="24" />
    <path d="M100,10 L190,190 L10,190 Z" fill="url(#grad20)" fill-opacity="0.08" />
    
    <!-- Career Icon Background Glow -->
    <circle cx="100" cy="90" r="48" fill="url(#grad20)" opacity="0.25" filter="url(#shadow20)" />
    
    <g transform="translate(68, 58) scale(2.6)" fill="#fff" filter="url(#shadow20)">
        <path d="M12,2C6.48,2 2,6.48 2,12C2,17.52 6.48,22 12,22C17.52,22 22,17.52 22,12C22,6.48 17.52,2 12,2M12,20C7.59,20 4,16.41 4,12C4,7.59 7.59,4 12,4C16.41,4 20,7.59 20,12C20,16.41 16.41,20 12,20M13,7H11V11H7V13H11V17H13V13H17V11H13V7Z" />
    </g>

    <!-- Decorative unique pattern -->
    <g stroke="hsl(240, 70%, 50%)" stroke-width="1.5" fill="none" opacity="0.3">
        <path d="M20,180 L180,20 M20,20 L180,180" />
    </g>

    <text x="100" y="175" font-family="Sora, sans-serif" font-size="11" fill="#fff" text-anchor="middle" font-weight="800" letter-spacing="0.5">NURSING ASSISTANT</text>
</svg>