<?xml version="1.0" encoding="UTF-8"?>
<svg width="200" height="200" viewBox="0 0 200 200" xmlns="http://www.w3.org/2000/svg">
    <defs>
        <linearGradient id="grad10" x1="0%" y1="0%" x2="100%" y2="100%">
            <stop offset="0%" style="stop-color:hsl(120, 70%, 50%);stop-opacity:1" />
            <stop offset="100%" style="stop-color:hsl(180, 60%, 40%);stop-opacity:1" />
        </linearGradient>
        <filter id="shadow10" x="-20%" y="-20%" width="140%" height="140%">
            <feGaussianBlur in="SourceAlpha" stdDeviation="4" />
            <feOffset dx="0" dy="4" result="offsetblur" />
            <feComponentTransfer>
                <feFuncA type="linear" slope="0.4" />
            </feComponentTransfer>
            <feMerge>
                <feMergeNode />
                <feMergeNode in="SourceGraphic" />
            </feMerge>
        </filter>
    </defs>
    <rect width="200" height="200" fill="hsl(120, 90%, 8%)" rx="24" />
    <rect x="15" y="15" width="170" height="170" rx="25" fill="url(#grad10)" fill-opacity="0.1" />
    
    <!-- Career Icon Background Glow -->
    <circle cx="100" cy="90" r="48" fill="url(#grad10)" opacity="0.25" filter="url(#shadow10)" />
    
    <g transform="translate(68, 58) scale(2.6)" fill="#fff" filter="url(#shadow10)">
        <path d="M12,2C6.48,2 2,6.48 2,12C2,17.52 6.48,22 12,22C17.52,22 22,17.52 22,12C22,6.48 17.52,2 12,2M12,20C7.59,20 4,16.41 4,12C4,7.59 7.59,4 12,4C16.41,4 20,7.59 20,12C20,16.41 16.41,20 12,20M11,14.59L15.59,10L17,11.41L11,17.41L7,13.41L8.41,12L11,14.59Z" />
    </g>

    <!-- Decorative unique pattern -->
    <g stroke="hsl(120, 70%, 50%)" stroke-width="1.5" fill="none" opacity="0.3">
        <rect x="40" y="30" width="120" height="120" rx="10" />
    </g>

    <text x="100" y="175" font-family="Sora, sans-serif" font-size="11" fill="#fff" text-anchor="middle" font-weight="800" letter-spacing="0.5">OPERATION THEATRE TECHNICIAN</text>
</svg>