<?xml version="1.0" encoding="UTF-8"?>
<svg width="200" height="200" viewBox="0 0 200 200" xmlns="http://www.w3.org/2000/svg">
    <defs>
        <linearGradient id="grad16" x1="0%" y1="0%" x2="100%" y2="100%">
            <stop offset="0%" style="stop-color:hsl(192, 70%, 50%);stop-opacity:1" />
            <stop offset="100%" style="stop-color:hsl(252, 60%, 40%);stop-opacity:1" />
        </linearGradient>
        <filter id="shadow16" x="-20%" y="-20%" width="140%" height="140%">
            <feGaussianBlur in="SourceAlpha" stdDeviation="4" />
            <feOffset dx="0" dy="4" result="offsetblur" />
            <feComponentTransfer>
                <feFuncA type="linear" slope="0.4" />
            </feComponentTransfer>
            <feMerge>
                <feMergeNode />
                <feMergeNode in="SourceGraphic" />
            </feMerge>
        </filter>
    </defs>
    <rect width="200" height="200" fill="hsl(192, 90%, 8%)" rx="24" />
    <rect x="15" y="15" width="170" height="170" rx="25" fill="url(#grad16)" fill-opacity="0.1" />
    
    <!-- Career Icon Background Glow -->
    <circle cx="100" cy="90" r="48" fill="url(#grad16)" opacity="0.25" filter="url(#shadow16)" />
    
    <g transform="translate(68, 58) scale(2.6)" fill="#fff" filter="url(#shadow16)">
        <path d="M17.9,17.39C17.64,16.59 16.89,16 16,16H15V13A1,1 0 0,0 14,12H8V10H10A1,1 0 0,0 11,9V7H13A2,2 0 0,0 15,5V4.59C17.93,5.77 20,8.64 20,12C20,14.08 19.2,15.97 17.9,17.39M11,19.93C7.05,19.44 4,16.08 4,12C4,11.38 4.08,10.78 4.21,10.21L9,15V16A2,2 0 0,0 11,18M12,2A10,10 0 0,0 2,12A10,10 0 0,0 12,22A10,10 0 0,0 22,12A10,10 0 0,0 12,2Z" />
    </g>

    <!-- Decorative unique pattern -->
    <g stroke="hsl(192, 70%, 50%)" stroke-width="1.5" fill="none" opacity="0.3">
        <rect x="40" y="30" width="120" height="120" rx="10" />
    </g>

    <text x="100" y="175" font-family="Sora, sans-serif" font-size="11" fill="#fff" text-anchor="middle" font-weight="800" letter-spacing="0.5">PUBLIC HEALTH ANALYST</text>
</svg>