<?xml version="1.0" encoding="UTF-8"?>
<svg width="200" height="200" viewBox="0 0 200 200" xmlns="http://www.w3.org/2000/svg">
    <defs>
        <linearGradient id="grad24" x1="0%" y1="0%" x2="100%" y2="100%">
            <stop offset="0%" style="stop-color:hsl(288, 70%, 50%);stop-opacity:1" />
            <stop offset="100%" style="stop-color:hsl(348, 60%, 40%);stop-opacity:1" />
        </linearGradient>
        <filter id="shadow24" x="-20%" y="-20%" width="140%" height="140%">
            <feGaussianBlur in="SourceAlpha" stdDeviation="4" />
            <feOffset dx="0" dy="4" result="offsetblur" />
            <feComponentTransfer>
                <feFuncA type="linear" slope="0.4" />
            </feComponentTransfer>
            <feMerge>
                <feMergeNode />
                <feMergeNode in="SourceGraphic" />
            </feMerge>
        </filter>
    </defs>
    <rect width="200" height="200" fill="hsl(288, 90%, 8%)" rx="24" />
    <circle cx="100" cy="100" r="85" fill="url(#grad24)" fill-opacity="0.12" />
    
    <!-- Career Icon Background Glow -->
    <circle cx="100" cy="90" r="48" fill="url(#grad24)" opacity="0.25" filter="url(#shadow24)" />
    
    <g transform="translate(68, 58) scale(2.6)" fill="#fff" filter="url(#shadow24)">
        <path d="M12,2C10.3,2 9,3.3 9,5V11C9,12.7 10.3,14 12,14C13.7,14 15,12.7 15,11V5C15,3.3 13.7,2 12,2M19,11C19,14.5 16.4,17.4 13,17.9V21H11V17.9C7.6,17.4 5,14.5 5,11H7C7,13.8 9.2,16 12,16C14.8,16 17,13.8 17,11H19Z" />
    </g>

    <!-- Decorative unique pattern -->
    <g stroke="hsl(288, 70%, 50%)" stroke-width="1.5" fill="none" opacity="0.3">
        <circle cx="100" cy="90" r="60" />
    </g>

    <text x="100" y="175" font-family="Sora, sans-serif" font-size="11" fill="#fff" text-anchor="middle" font-weight="800" letter-spacing="0.5">SPEECH THERAPIST</text>
</svg>