<?xml version="1.0" encoding="UTF-8"?>
<svg width="600" height="400" viewBox="0 0 600 400" xmlns="http://www.w3.org/2000/svg">
    <defs>
        <linearGradient id="grad2" x1="0%" y1="0%" x2="100%" y2="100%">
            <stop offset="0%" style="stop-color:hsl(40, 80%, 50%);stop-opacity:1" />
            <stop offset="100%" style="stop-color:hsl(70, 70%, 40%);stop-opacity:1" />
        </linearGradient>
        <filter id="shadow2" x="-20%" y="-20%" width="140%" height="140%">
            <feGaussianBlur in="SourceAlpha" stdDeviation="12" />
            <feOffset dx="0" dy="8" />
            <feComponentTransfer>
                <feFuncA type="linear" slope="0.4" />
            </feComponentTransfer>
            <feMerge>
                <feMergeNode />
                <feMergeNode in="SourceGraphic" />
            </feMerge>
        </filter>
    </defs>
    
    <!-- Background -->
    <rect width="600" height="400" fill="#0f172a" />
    
    <!-- Dynamic Industrial Background Elements -->
    <path d="M0,200 Q150,50 300,200 T600,200" fill="none" stroke="hsl(55, 90%, 60%)" stroke-width="40" opacity="0.05" /><rect x="450" y="250" width="120" height="120" rx="20" fill="hsl(55, 90%, 60%)" opacity="0.08" />
    
    <!-- Glassmorphic Glow -->
    <circle cx="300" cy="200" r="150" fill="url(#grad2)" opacity="0.05" />
    
    <!-- Central Illustration Shape -->
    <g filter="url(#shadow2)">
        <path d="M300,100 L400,200 L300,300 L200,200 Z" fill="url(#grad2)" opacity="0.2" />
        
        <circle cx="300" cy="200" r="70" fill="url(#grad2)" />
        <path d="M12,15.5A3.5,3.5 0 0,1 8.5,12A3.5,3.5 0 0,1 12,8.5A3.5,3.5 0 0,1 15.5,12A3.5,3.5 0 0,1 12,15.5M19.43,12.97C19.47,12.65 19.5,12.33 19.5,12C19.5,11.67 19.47,11.34 19.43,11L21.54,9.37C21.73,9.22 21.78,8.95 21.66,8.73L19.66,5.27C19.54,5.05 19.27,4.97 19.05,5.05L16.56,6.05C16.04,5.66 15.5,5.32 14.87,5.07L14.5,2.42C14.46,2.18 14.25,2 14,2H10C9.75,2 9.54,2.18 9.5,2.42L9.13,5.07C8.5,5.32 7.96,5.66 7.44,6.05L4.95,5.05C4.73,4.97 4.46,5.05 4.34,5.27L2.34,8.73C2.21,8.95 2.27,9.22 2.46,9.37L4.57,11C4.53,11.34 4.5,11.67 4.5,12C4.5,12.33 4.53,12.65 4.57,12.97L2.46,14.63C2.27,14.78 2.21,15.05 2.34,15.27L4.34,18.73C4.46,18.95 4.73,19.03 4.95,18.95L7.44,17.94C7.96,18.34 8.5,18.68 9.13,18.93L9.5,21.58C9.54,21.82 9.75,22 10,22H14C14.25,22 14.46,21.82 14.5,21.58L14.87,18.93C15.5,18.67 16.04,18.34 16.56,17.94L19.05,18.95C19.27,19.03 19.54,18.95 19.66,18.73L21.66,15.27C21.78,15.05 21.73,14.78 21.54,14.63L19.43,12.97Z" transform="translate(265, 165) scale(2.9)" fill="#ffffff" />
    </g>

    <!-- Floating Particles -->
    <g opacity="0.15">
        <circle cx="150" cy="80" r="4" fill="#ffffff" />
        <circle cx="450" cy="320" r="6" fill="#ffffff" />
        <circle cx="520" cy="180" r="3" fill="#ffffff" />
        <circle cx="80" cy="200" r="5" fill="#ffffff" />
    </g>
</svg>